# xmcd CD database file
#
# Track frame offsets:
#	150
#	14540
#	29910
#	44547
#	60957
#	74527
#	88777
#	100857
#	119792
#	132272
#	146852
#	164802
#
# Disc length: 2359 seconds
#
# Revision: 0
# Processed by: cddbd v1.5.2PL0 Copyright (c) Steve Scherf et al.
# Submitted via: CDex 1.51
#
DISCID=be09350c
DTITLE=Ella Fitzgerald - Songs in a Mellow Mood
DYEAR=1900
DGENRE=Jazz
TTITLE0=I'm glad there is you
TTITLE1=What is there to say
TTITLE2=People will say we're on love
TTITLE3=Please be kind
TTITLE4=Until the real thing comes along
TTITLE5=Makin' whoopee!
TTITLE6=Imagination
TTITLE7=Star Dust
TTITLE8=My Heart belongs to Daddy
TTITLE9=You leave me breathless
TTITLE10=Baby, what else can I do
TTITLE11=Nive work if you can get it
EXTD=
EXTT0=
EXTT1=
EXTT2=
EXTT3=
EXTT4=
EXTT5=
EXTT6=
EXTT7=
EXTT8=
EXTT9=
EXTT10=
EXTT11=
PLAYORDER=
